<?xml version="1.0" standalone="no"?>
<!DOCTYPE svg PUBLIC "-//W3C//DTD SVG 20010904//EN"
 "http://www.w3.org/TR/2001/REC-SVG-20010904/DTD/svg10.dtd">
<svg version="1.0" xmlns="http://www.w3.org/2000/svg"
 width="500.000000pt" height="500.000000pt" viewBox="0 0 500.000000 500.000000"
 preserveAspectRatio="xMidYMid meet">

<g transform="translate(0.000000,500.000000) scale(0.100000,-0.100000)"
fill="#000000" stroke="none">
<path d="M0 2500 l0 -2500 2500 0 2500 0 0 2500 0 2500 -2500 0 -2500 0 0
-2500z m1994 53 c4 -16 9 -36 12 -45 4 -14 -1 -18 -20 -18 -14 0 -26 6 -26 13
0 9 -2 9 -8 1 -8 -14 -51 -23 -52 -11 -2 10 11 70 17 80 2 4 19 7 38 7 28 0
34 -4 39 -27z m169 20 c2 -5 7 -25 11 -45 l7 -38 -51 0 -50 0 0 45 0 45 39 0
c22 0 42 -3 44 -7z m140 0 c2 -5 2 -25 0 -45 -5 -38 -6 -38 -50 -38 l-45 0 7
37 c4 21 9 41 11 45 7 10 72 10 77 1z m175 -9 c14 -10 22 -25 22 -45 0 -24 -4
-29 -25 -29 -15 0 -25 6 -25 14 0 13 -20 26 -41 26 -5 0 -9 -9 -9 -20 0 -16
-7 -20 -30 -20 -29 0 -30 2 -30 45 l0 45 58 0 c36 0 66 -6 80 -16z m145 9 c2
-5 7 -24 11 -45 l7 -36 -51 0 -50 -1 0 38 c0 21 3 41 7 44 9 9 71 9 76 0z
m143 -28 c1 -49 -5 -55 -53 -55 l-45 0 7 37 c9 52 12 55 53 51 34 -3 37 -6 38
-33z m174 10 c0 -22 -4 -25 -40 -25 -33 0 -40 -3 -40 -20 0 -16 -7 -20 -30
-20 -28 0 -30 2 -30 38 0 21 3 42 7 45 3 4 35 7 70 7 61 0 63 -1 63 -25z m187
17 c7 -4 10 -17 7 -29 -5 -18 -11 -20 -44 -16 -31 4 -41 2 -52 -16 -15 -25
-58 -29 -58 -5 0 25 20 54 43 64 28 11 88 12 104 2z m-1093 -163 c2 -2 7 -21
11 -42 7 -38 7 -39 -21 -35 -23 2 -30 9 -32 31 -3 23 -8 27 -37 27 -29 0 -34
-4 -40 -30 -5 -25 -12 -30 -35 -30 -28 0 -28 1 -18 38 6 20 12 41 15 45 5 9
149 5 157 -4z m104 -37 c3 -41 2 -42 -27 -42 -29 0 -31 2 -31 39 0 39 11 51
40 48 10 -2 16 -16 18 -45z m92 16 c0 -43 -10 -58 -40 -58 -25 0 -28 4 -33 38
-6 48 -5 49 38 48 31 -1 35 -4 35 -28z m70 -13 c0 -41 -2 -45 -25 -45 -22 0
-25 4 -25 38 0 43 5 52 32 52 15 0 18 -8 18 -45z m97 25 c7 -26 37 -26 55 1
17 27 58 18 58 -12 0 -38 -35 -59 -100 -59 l-60 0 0 45 c0 39 3 45 21 45 12 0
23 -8 26 -20z m193 -27 c0 -39 -2 -43 -25 -43 -22 0 -25 4 -25 38 0 44 4 51
31 49 15 -1 19 -9 19 -44z m100 17 c0 -45 -10 -60 -40 -60 -25 0 -28 4 -33 38
-2 20 -3 39 -1 42 1 4 19 6 38 7 33 1 36 -1 36 -27z m70 -16 c0 -40 -2 -44
-25 -44 -22 0 -25 4 -25 38 0 44 2 47 30 49 17 2 20 -4 20 -43z m97 26 c4 -16
14 -20 49 -20 40 0 44 -2 44 -25 0 -24 -2 -25 -75 -25 l-75 0 0 38 c0 21 3 42
7 45 14 14 45 6 50 -13z m173 10 c0 -5 11 -17 24 -25 17 -12 30 -13 49 -6 21
8 26 7 31 -11 8 -32 -1 -38 -53 -38 -58 0 -101 28 -101 66 0 19 5 24 25 24 14
0 25 -4 25 -10z"/>
</g>
</svg>
